<mxfile host="app.diagrams.net" modified="2021-06-29T01:34:00.614Z" agent="5.0 (Windows NT 10.0; Win64; x64) AppleWebKit/537.36 (KHTML, like Gecko) Chrome/91.0.4472.77 Safari/537.36" etag="nXL35NjfUbgggr2YU8QM" version="14.8.1" type="github">
  <diagram id="v0ytFxab5EfhOOdm3xSH" name="Page-1">
    <mxGraphModel dx="1038" dy="547" grid="1" gridSize="10" guides="1" tooltips="1" connect="1" arrows="1" fold="1" page="1" pageScale="1" pageWidth="850" pageHeight="1100" math="0" shadow="0">
      <root>
        <mxCell id="0" />
        <mxCell id="1" parent="0" />
        <mxCell id="XSyNKEyvLyJn55U-GWas-3" value="" style="edgeStyle=orthogonalEdgeStyle;rounded=0;orthogonalLoop=1;jettySize=auto;html=1;" edge="1" parent="1" source="XSyNKEyvLyJn55U-GWas-1">
          <mxGeometry relative="1" as="geometry">
            <mxPoint x="300" y="160" as="targetPoint" />
          </mxGeometry>
        </mxCell>
        <mxCell id="XSyNKEyvLyJn55U-GWas-1" value="Start" style="rounded=1;whiteSpace=wrap;html=1;" vertex="1" parent="1">
          <mxGeometry x="240" y="20" width="120" height="60" as="geometry" />
        </mxCell>
        <mxCell id="XSyNKEyvLyJn55U-GWas-6" value="" style="edgeStyle=orthogonalEdgeStyle;rounded=0;orthogonalLoop=1;jettySize=auto;html=1;" edge="1" parent="1" target="XSyNKEyvLyJn55U-GWas-5">
          <mxGeometry relative="1" as="geometry">
            <mxPoint x="300" y="220" as="sourcePoint" />
          </mxGeometry>
        </mxCell>
        <mxCell id="XSyNKEyvLyJn55U-GWas-8" value="" style="edgeStyle=orthogonalEdgeStyle;rounded=0;orthogonalLoop=1;jettySize=auto;html=1;" edge="1" parent="1" source="XSyNKEyvLyJn55U-GWas-5" target="XSyNKEyvLyJn55U-GWas-7">
          <mxGeometry relative="1" as="geometry" />
        </mxCell>
        <mxCell id="XSyNKEyvLyJn55U-GWas-5" value="Get User Letter Guess" style="whiteSpace=wrap;html=1;rounded=0;" vertex="1" parent="1">
          <mxGeometry x="240" y="300" width="120" height="60" as="geometry" />
        </mxCell>
        <mxCell id="XSyNKEyvLyJn55U-GWas-10" value="" style="edgeStyle=orthogonalEdgeStyle;rounded=0;orthogonalLoop=1;jettySize=auto;html=1;" edge="1" parent="1" source="XSyNKEyvLyJn55U-GWas-7" target="XSyNKEyvLyJn55U-GWas-9">
          <mxGeometry relative="1" as="geometry" />
        </mxCell>
        <mxCell id="XSyNKEyvLyJn55U-GWas-20" value="" style="edgeStyle=orthogonalEdgeStyle;rounded=0;orthogonalLoop=1;jettySize=auto;html=1;" edge="1" parent="1" source="XSyNKEyvLyJn55U-GWas-7" target="XSyNKEyvLyJn55U-GWas-19">
          <mxGeometry relative="1" as="geometry" />
        </mxCell>
        <mxCell id="XSyNKEyvLyJn55U-GWas-7" value="Letter in Word?" style="rhombus;whiteSpace=wrap;html=1;rounded=0;" vertex="1" parent="1">
          <mxGeometry x="260" y="430" width="80" height="80" as="geometry" />
        </mxCell>
        <mxCell id="XSyNKEyvLyJn55U-GWas-13" value="" style="edgeStyle=orthogonalEdgeStyle;rounded=0;orthogonalLoop=1;jettySize=auto;html=1;" edge="1" parent="1" source="XSyNKEyvLyJn55U-GWas-9" target="XSyNKEyvLyJn55U-GWas-12">
          <mxGeometry relative="1" as="geometry" />
        </mxCell>
        <mxCell id="XSyNKEyvLyJn55U-GWas-9" value="Replace underscores with correctly guessed letter" style="whiteSpace=wrap;html=1;rounded=0;" vertex="1" parent="1">
          <mxGeometry x="240" y="600" width="120" height="60" as="geometry" />
        </mxCell>
        <mxCell id="XSyNKEyvLyJn55U-GWas-11" value="Yes" style="text;html=1;strokeColor=none;fillColor=none;align=center;verticalAlign=middle;whiteSpace=wrap;rounded=0;" vertex="1" parent="1">
          <mxGeometry x="300" y="530" width="40" height="20" as="geometry" />
        </mxCell>
        <mxCell id="XSyNKEyvLyJn55U-GWas-14" style="edgeStyle=orthogonalEdgeStyle;rounded=0;orthogonalLoop=1;jettySize=auto;html=1;exitX=0;exitY=0.5;exitDx=0;exitDy=0;entryX=0;entryY=0.5;entryDx=0;entryDy=0;" edge="1" parent="1" source="XSyNKEyvLyJn55U-GWas-12" target="XSyNKEyvLyJn55U-GWas-5">
          <mxGeometry relative="1" as="geometry">
            <Array as="points">
              <mxPoint x="120" y="770" />
              <mxPoint x="120" y="330" />
            </Array>
          </mxGeometry>
        </mxCell>
        <mxCell id="XSyNKEyvLyJn55U-GWas-17" value="" style="edgeStyle=orthogonalEdgeStyle;rounded=0;orthogonalLoop=1;jettySize=auto;html=1;" edge="1" parent="1" source="XSyNKEyvLyJn55U-GWas-12" target="XSyNKEyvLyJn55U-GWas-16">
          <mxGeometry relative="1" as="geometry" />
        </mxCell>
        <mxCell id="XSyNKEyvLyJn55U-GWas-12" value="Word Complete?" style="rhombus;whiteSpace=wrap;html=1;rounded=0;" vertex="1" parent="1">
          <mxGeometry x="260" y="730" width="80" height="80" as="geometry" />
        </mxCell>
        <mxCell id="XSyNKEyvLyJn55U-GWas-15" value="No" style="text;html=1;strokeColor=none;fillColor=none;align=center;verticalAlign=middle;whiteSpace=wrap;rounded=0;" vertex="1" parent="1">
          <mxGeometry x="220" y="750" width="40" height="20" as="geometry" />
        </mxCell>
        <mxCell id="XSyNKEyvLyJn55U-GWas-45" style="edgeStyle=orthogonalEdgeStyle;rounded=0;orthogonalLoop=1;jettySize=auto;html=1;exitX=1;exitY=0.5;exitDx=0;exitDy=0;entryX=0;entryY=0.5;entryDx=0;entryDy=0;" edge="1" parent="1" source="XSyNKEyvLyJn55U-GWas-16" target="XSyNKEyvLyJn55U-GWas-44">
          <mxGeometry relative="1" as="geometry" />
        </mxCell>
        <mxCell id="XSyNKEyvLyJn55U-GWas-16" value="Player Wins" style="whiteSpace=wrap;html=1;rounded=0;" vertex="1" parent="1">
          <mxGeometry x="240" y="900" width="120" height="60" as="geometry" />
        </mxCell>
        <mxCell id="XSyNKEyvLyJn55U-GWas-18" value="Yes" style="text;html=1;strokeColor=none;fillColor=none;align=center;verticalAlign=middle;whiteSpace=wrap;rounded=0;" vertex="1" parent="1">
          <mxGeometry x="300" y="810" width="40" height="20" as="geometry" />
        </mxCell>
        <mxCell id="XSyNKEyvLyJn55U-GWas-23" value="" style="edgeStyle=orthogonalEdgeStyle;rounded=0;orthogonalLoop=1;jettySize=auto;html=1;" edge="1" parent="1" source="XSyNKEyvLyJn55U-GWas-19" target="XSyNKEyvLyJn55U-GWas-22">
          <mxGeometry relative="1" as="geometry" />
        </mxCell>
        <mxCell id="XSyNKEyvLyJn55U-GWas-19" value="Add to hangman" style="whiteSpace=wrap;html=1;rounded=0;" vertex="1" parent="1">
          <mxGeometry x="400" y="440" width="120" height="60" as="geometry" />
        </mxCell>
        <mxCell id="XSyNKEyvLyJn55U-GWas-21" value="No" style="text;html=1;strokeColor=none;fillColor=none;align=center;verticalAlign=middle;whiteSpace=wrap;rounded=0;" vertex="1" parent="1">
          <mxGeometry x="340" y="450" width="40" height="20" as="geometry" />
        </mxCell>
        <mxCell id="XSyNKEyvLyJn55U-GWas-24" style="edgeStyle=orthogonalEdgeStyle;rounded=0;orthogonalLoop=1;jettySize=auto;html=1;exitX=1;exitY=0.5;exitDx=0;exitDy=0;entryX=1;entryY=0.5;entryDx=0;entryDy=0;" edge="1" parent="1" source="XSyNKEyvLyJn55U-GWas-22" target="XSyNKEyvLyJn55U-GWas-5">
          <mxGeometry relative="1" as="geometry">
            <Array as="points">
              <mxPoint x="640" y="620" />
              <mxPoint x="640" y="330" />
            </Array>
          </mxGeometry>
        </mxCell>
        <mxCell id="XSyNKEyvLyJn55U-GWas-27" value="" style="edgeStyle=orthogonalEdgeStyle;rounded=0;orthogonalLoop=1;jettySize=auto;html=1;" edge="1" parent="1" source="XSyNKEyvLyJn55U-GWas-22" target="XSyNKEyvLyJn55U-GWas-26">
          <mxGeometry relative="1" as="geometry" />
        </mxCell>
        <mxCell id="XSyNKEyvLyJn55U-GWas-22" value="Is Game Over?" style="rhombus;whiteSpace=wrap;html=1;rounded=0;" vertex="1" parent="1">
          <mxGeometry x="420" y="580" width="80" height="80" as="geometry" />
        </mxCell>
        <mxCell id="XSyNKEyvLyJn55U-GWas-25" value="No" style="text;html=1;strokeColor=none;fillColor=none;align=center;verticalAlign=middle;whiteSpace=wrap;rounded=0;" vertex="1" parent="1">
          <mxGeometry x="500" y="600" width="40" height="20" as="geometry" />
        </mxCell>
        <mxCell id="XSyNKEyvLyJn55U-GWas-46" style="edgeStyle=orthogonalEdgeStyle;rounded=0;orthogonalLoop=1;jettySize=auto;html=1;exitX=0.5;exitY=1;exitDx=0;exitDy=0;entryX=0.5;entryY=0;entryDx=0;entryDy=0;" edge="1" parent="1" source="XSyNKEyvLyJn55U-GWas-26" target="XSyNKEyvLyJn55U-GWas-44">
          <mxGeometry relative="1" as="geometry" />
        </mxCell>
        <mxCell id="XSyNKEyvLyJn55U-GWas-26" value="Player Loses" style="whiteSpace=wrap;html=1;rounded=0;" vertex="1" parent="1">
          <mxGeometry x="400" y="750" width="120" height="60" as="geometry" />
        </mxCell>
        <mxCell id="XSyNKEyvLyJn55U-GWas-28" value="Yes" style="text;html=1;strokeColor=none;fillColor=none;align=center;verticalAlign=middle;whiteSpace=wrap;rounded=0;" vertex="1" parent="1">
          <mxGeometry x="460" y="660" width="40" height="20" as="geometry" />
        </mxCell>
        <mxCell id="XSyNKEyvLyJn55U-GWas-29" value="Initialize Game" style="shape=process;whiteSpace=wrap;html=1;backgroundOutline=1;size=0.08333333333333333;" vertex="1" parent="1">
          <mxGeometry x="240" y="160" width="120" height="60" as="geometry" />
        </mxCell>
        <mxCell id="XSyNKEyvLyJn55U-GWas-30" value="" style="endArrow=classic;html=1;" edge="1" parent="1" target="XSyNKEyvLyJn55U-GWas-31">
          <mxGeometry width="50" height="50" relative="1" as="geometry">
            <mxPoint x="360" y="160" as="sourcePoint" />
            <mxPoint x="480" y="50" as="targetPoint" />
          </mxGeometry>
        </mxCell>
        <mxCell id="XSyNKEyvLyJn55U-GWas-33" value="" style="edgeStyle=orthogonalEdgeStyle;rounded=0;orthogonalLoop=1;jettySize=auto;html=1;" edge="1" parent="1" source="XSyNKEyvLyJn55U-GWas-31" target="XSyNKEyvLyJn55U-GWas-32">
          <mxGeometry relative="1" as="geometry" />
        </mxCell>
        <mxCell id="XSyNKEyvLyJn55U-GWas-31" value="start" style="rounded=1;whiteSpace=wrap;html=1;" vertex="1" parent="1">
          <mxGeometry x="420" y="20" width="60" height="30" as="geometry" />
        </mxCell>
        <mxCell id="XSyNKEyvLyJn55U-GWas-35" value="" style="edgeStyle=orthogonalEdgeStyle;rounded=0;orthogonalLoop=1;jettySize=auto;html=1;" edge="1" parent="1" source="XSyNKEyvLyJn55U-GWas-32" target="XSyNKEyvLyJn55U-GWas-34">
          <mxGeometry relative="1" as="geometry" />
        </mxCell>
        <mxCell id="XSyNKEyvLyJn55U-GWas-32" value="Greet player" style="whiteSpace=wrap;html=1;rounded=1;" vertex="1" parent="1">
          <mxGeometry x="530" y="22.5" width="80" height="25" as="geometry" />
        </mxCell>
        <mxCell id="XSyNKEyvLyJn55U-GWas-37" value="" style="edgeStyle=orthogonalEdgeStyle;rounded=0;orthogonalLoop=1;jettySize=auto;html=1;entryX=0.5;entryY=0;entryDx=0;entryDy=0;" edge="1" parent="1" source="XSyNKEyvLyJn55U-GWas-34" target="XSyNKEyvLyJn55U-GWas-38">
          <mxGeometry relative="1" as="geometry">
            <mxPoint x="710" y="100" as="targetPoint" />
          </mxGeometry>
        </mxCell>
        <mxCell id="XSyNKEyvLyJn55U-GWas-34" value="Select random word from dictionary" style="whiteSpace=wrap;html=1;rounded=1;" vertex="1" parent="1">
          <mxGeometry x="650" y="11.25" width="120" height="47.5" as="geometry" />
        </mxCell>
        <mxCell id="XSyNKEyvLyJn55U-GWas-40" value="" style="edgeStyle=orthogonalEdgeStyle;rounded=0;orthogonalLoop=1;jettySize=auto;html=1;" edge="1" parent="1" source="XSyNKEyvLyJn55U-GWas-38" target="XSyNKEyvLyJn55U-GWas-39">
          <mxGeometry relative="1" as="geometry" />
        </mxCell>
        <mxCell id="XSyNKEyvLyJn55U-GWas-38" value="Get word length" style="rounded=1;whiteSpace=wrap;html=1;" vertex="1" parent="1">
          <mxGeometry x="660" y="90" width="100" height="30" as="geometry" />
        </mxCell>
        <mxCell id="XSyNKEyvLyJn55U-GWas-42" value="" style="edgeStyle=orthogonalEdgeStyle;rounded=0;orthogonalLoop=1;jettySize=auto;html=1;" edge="1" parent="1" source="XSyNKEyvLyJn55U-GWas-39" target="XSyNKEyvLyJn55U-GWas-41">
          <mxGeometry relative="1" as="geometry" />
        </mxCell>
        <mxCell id="XSyNKEyvLyJn55U-GWas-39" value="output word as underscores" style="whiteSpace=wrap;html=1;rounded=1;" vertex="1" parent="1">
          <mxGeometry x="465" y="85" width="110" height="40" as="geometry" />
        </mxCell>
        <mxCell id="XSyNKEyvLyJn55U-GWas-41" value="stop" style="whiteSpace=wrap;html=1;rounded=1;" vertex="1" parent="1">
          <mxGeometry x="460" y="195" width="120" height="60" as="geometry" />
        </mxCell>
        <mxCell id="XSyNKEyvLyJn55U-GWas-43" value="" style="endArrow=classic;html=1;exitX=1;exitY=1;exitDx=0;exitDy=0;entryX=0;entryY=0.5;entryDx=0;entryDy=0;" edge="1" parent="1" source="XSyNKEyvLyJn55U-GWas-29" target="XSyNKEyvLyJn55U-GWas-41">
          <mxGeometry width="50" height="50" relative="1" as="geometry">
            <mxPoint x="360" y="230" as="sourcePoint" />
            <mxPoint x="410" y="180" as="targetPoint" />
          </mxGeometry>
        </mxCell>
        <mxCell id="XSyNKEyvLyJn55U-GWas-44" value="Stop" style="rounded=1;whiteSpace=wrap;html=1;" vertex="1" parent="1">
          <mxGeometry x="400" y="900" width="120" height="60" as="geometry" />
        </mxCell>
      </root>
    </mxGraphModel>
  </diagram>
</mxfile>
